<?xml version="1.0" encoding="utf-8"?>
<!-- Generator: Adobe Illustrator 21.1.0, SVG Export Plug-In . SVG Version: 6.00 Build 0)  -->
<svg version="1.1" id="Layer_1" xmlns="http://www.w3.org/2000/svg" xmlns:xlink="http://www.w3.org/1999/xlink" x="0px" y="0px"
	 viewBox="0 0 48 24" style="enable-background:new 0 0 48 24;" xml:space="preserve">
<style type="text/css">
	.st0{fill:#D8D8D8;fill-opacity:0;}
	.st1{fill:#FFFFFF;}
</style>
<rect id="Rectangle-2" class="st0" width="24" height="24"/>
<rect id="Rectangle-2_1_" x="24" class="st0" width="24" height="24"/>
<title>Facebook</title>
<desc>Created with Sketch.</desc>
<g id="Page-1" transform="translate(6.000000, 2.000000)">
	<path id="Fill-1" class="st1" d="M4.1,9.1c0.3,0,0.5,0.2,0.5,0.5L4.7,19h2.6L7.2,9.6c0-0.1,0.1-0.3,0.1-0.4
		c0.1-0.1,0.2-0.1,0.4-0.1H11V7.4H7.7l0,0c-0.3,0-0.5-0.2-0.5-0.5V5.3C7.2,4,8,2.8,10,2.8h1V1H8.4C8.2,1,5.3,0.9,4.6,3.9
		c0,0-0.3,0.9-0.2,3c0,0.1,0,0.3-0.1,0.4S4.1,7.5,3.9,7.5H1.1v1.6H4.1L4.1,9.1z M4.2,20c-0.3,0-0.5-0.2-0.5-0.5l-0.1-9.4H0.5l0,0
		C0.2,10.1,0,9.9,0,9.6V7c0-0.1,0.1-0.3,0.1-0.4c0.1-0.1,0.2-0.1,0.4-0.1h2.8c0-1.9,0.3-2.8,0.3-2.8c0.9-3.8,4.8-3.6,4.8-3.6h3l0,0
		c0.3,0,0.5,0.2,0.5,0.5v2.8c0,0.3-0.2,0.5-0.5,0.5H9.9c-1.3,0-1.8,0.8-1.8,1.5v1.1h3.3c0.2,0,0.3,0.1,0.4,0.1
		c0.1,0.1,0.1,0.2,0.1,0.4v2.7c0,0.3-0.2,0.5-0.5,0.5H8.1l0.1,9.4c0,0.1-0.1,0.3-0.1,0.4c-0.1,0.1-0.2,0.1-0.4,0.1L4.2,20L4.2,20z"
		/>
</g>
<path id="Fill-1_1_" class="st1" d="M41.3,8.4L41.3,8.4h-3.1V7.3c0-0.4,0.1-0.8,0.4-1C38.9,6,39.4,5.8,40,5.8h1.5
	c0.3,0,0.5-0.2,0.5-0.5V2.5C42,2.2,41.8,2,41.5,2l0,0h-3c0,0-3.9-0.2-4.8,3.6c0,0-0.3,0.9-0.3,2.8h-2.8c-0.1,0-0.3,0.1-0.4,0.1
	c-0.1,0.1-0.1,0.2-0.1,0.4v2.6c0,0.1,0.1,0.3,0.1,0.4c0.1,0.1,0.3,0.2,0.4,0.1h3.1l0.1,9.4c0,0.3,0.2,0.5,0.5,0.5l0,0h3.6
	c0.1,0,0.3-0.1,0.4-0.1c0.1-0.1,0.1-0.2,0.1-0.4L38.3,12h3.1c0.1,0,0.3-0.1,0.4-0.1c0.1-0.1,0.1-0.2,0.1-0.4V8.9
	C41.8,8.6,41.6,8.4,41.3,8.4"/>
</svg>
