<?xml version="1.0" encoding="utf-8"?>
<!-- Generator: Adobe Illustrator 21.1.0, SVG Export Plug-In . SVG Version: 6.00 Build 0)  -->
<svg version="1.1" id="Layer_1" xmlns="http://www.w3.org/2000/svg" xmlns:xlink="http://www.w3.org/1999/xlink" x="0px" y="0px"
	 viewBox="0 0 48 24" style="enable-background:new 0 0 48 24;" xml:space="preserve">
<style type="text/css">
	.st0{opacity:0;}
	.st1{fill:#D8D8D8;}
	.st2{fill:#FFFFFF;}
</style>
<title>Facebook</title>
<desc>Created with Sketch.</desc>
<g id="bounding-box_6_" class="st0">
	<rect id="Rectangle-2_10_" x="0" class="st1" width="24" height="24"/>
</g>
<g id="twitter" transform="translate(1.000000, 3.000000)">
	<path id="Fill-1_6_" class="st2" d="M14.8,0L14.8,0c-2.8,0-5,2.2-5,5C6.1,4.6,3.1,1.3,3.1,1.2C2.9,1,2.6,0.9,2.4,0.9
		c0,0-0.1,0-0.1,0c-0.3,0-0.6,0.2-0.8,0.5c-1,1.7-0.8,3.3-0.2,4.5C1,6.1,0.9,6.4,0.9,6.7c0,1.7,0.7,2.9,1.5,3.7
		c-0.1,0.2-0.1,0.4,0,0.7c0.5,1.4,1.4,2.3,2.3,2.8c-0.9,0.3-1.8,0.4-2.4,0.4c-0.6,0-1-0.1-1-0.1c-0.1,0-0.1,0-0.2,0
		c-0.4,0-0.8,0.2-0.9,0.6c-0.2,0.4,0,0.9,0.3,1.2c2.3,1.7,5,2,6.8,2c1.5,0,2.6-0.2,2.7-0.2c9.3-2.2,10-10.1,10-12.2
		c1.1-1,1.7-1.8,2-2.3C22,3.2,22,3,22,2.9c0-0.5-0.3-0.8-0.7-1c0.1-0.3,0.1-0.6,0.1-0.7c0-0.4-0.2-0.7-0.6-0.8
		c-0.1-0.1-0.3-0.1-0.4-0.1c-0.2,0-0.4,0.1-0.6,0.2C19.1,1,18.5,1.1,18,1.2C17.1,0.4,16,0,14.8,0 M21,2.9L21,2.9 M14.8,1
		c1.1,0,2.1,0.4,2.9,1.2h0c0.6,0,1.6-0.1,2.7-0.9c0,0,0.1,0.8-1.7,2.2c0,0,1.6-0.1,2.3-0.6c0,0-0.1,0.5-2.1,2.3
		c0,0,0.7,9.3-9.2,11.6c0,0-1,0.2-2.5,0.2C5.5,17,3,16.7,1,15.2c0,0,0.5,0.1,1.2,0.1c1.3,0,3.4-0.3,4.8-1.8h0c-0.2,0-2.8,0-3.7-2.7
		c0,0,0.4,0.1,0.8,0.1c0.3,0,0.6,0,0.8-0.1c0,0-3.1-0.6-3.1-4c0,0,0.7,0.5,1.4,0.5c0.1,0,0.1,0,0.2,0c0,0-2.8-2.3-1.1-5.3
		c0,0,3.6,4.1,8.1,4.1c0.1,0,0.3,0,0.4,0c-0.1-0.3-0.1-0.6-0.1-1C10.7,2.8,12.5,1,14.8,1L14.8,1"/>
</g>
<g id="bounding-box_7_" class="st0">
	<rect id="Rectangle-2_15_" x="24" y="0" class="st1" width="24" height="24"/>
</g>
<path id="Fill-1_7_" class="st2" d="M46.3,4.9c0.1-0.3,0.1-0.6,0.1-0.7c0-0.4-0.2-0.7-0.6-0.8c-0.1-0.1-0.3-0.1-0.4-0.1
	c-0.2,0-0.4,0.1-0.6,0.2C44.1,4,43.5,4.1,43,4.2C42.1,3.4,41,3,39.8,3h0c-2.8,0-5,2.2-5,5c-3.7-0.4-6.6-3.7-6.6-3.7
	c-0.2-0.2-0.5-0.3-0.8-0.3c0,0-0.1,0-0.1,0c-0.3,0-0.6,0.2-0.8,0.5c-1,1.7-0.8,3.3-0.2,4.5c-0.3,0.2-0.4,0.5-0.4,0.8
	c0,1.7,0.7,2.9,1.5,3.7c-0.1,0.2-0.1,0.4,0,0.7c0.5,1.4,1.4,2.3,2.3,2.8c-0.9,0.3-1.8,0.4-2.4,0.4c-0.6,0-1-0.1-1-0.1
	c-0.1,0-0.1,0-0.2,0c-0.4,0-0.8,0.2-0.9,0.6c-0.2,0.4,0,0.9,0.3,1.2c2.3,1.7,5,2,6.8,2c1.5,0,2.6-0.2,2.7-0.2
	c9.3-2.2,10-10.1,10-12.2c1.1-1,1.7-1.8,2-2.3C47,6.2,47,6,47,5.9C47,5.4,46.7,5,46.3,4.9"/>
</svg>
