<?xml version="1.0" encoding="utf-8"?>
<!-- Generator: Adobe Illustrator 21.1.0, SVG Export Plug-In . SVG Version: 6.00 Build 0)  -->
<svg version="1.1" id="Layer_1" xmlns="http://www.w3.org/2000/svg" xmlns:xlink="http://www.w3.org/1999/xlink" x="0px" y="0px"
	 viewBox="0 0 48 24" style="enable-background:new 0 0 48 24;" xml:space="preserve">
<style type="text/css">
	.st0{fill:#D8D8D8;fill-opacity:0;}
	.st1{opacity:0;}
	.st2{fill:#D8D8D8;}
	.st3{fill:#FFFFFF;}
</style>
<title>Facebook</title>
<desc>Created with Sketch.</desc>
<rect id="Rectangle-2_9_" x="24" class="st0" width="24" height="24"/>
<g id="bounding-box_2_" class="st1">
	<rect id="Rectangle-2_4_" class="st2" width="24" height="24"/>
</g>
<g transform="translate(0.000000, 3.000000)">
	<path id="Fill-1_4_" class="st3" d="M3.5,1C2.1,1,1,2.1,1,3.5v11C1,15.9,2.1,17,3.5,17h17c1.4,0,2.5-1.1,2.5-2.5v-11
		C23,2.1,21.9,1,20.5,1H3.5z M20.5,18h-17C1.6,18,0,16.4,0,14.5v-11C0,1.6,1.6,0,3.5,0h17C22.4,0,24,1.6,24,3.5v11
		C24,16.4,22.4,18,20.5,18z"/>
	<path id="Fill-3_2_" class="st3" d="M10.5,6.7v4.5l3.9-2.3L10.5,6.7z M9.6,13V5l7,4L9.6,13z"/>
</g>
<g id="bounding-box_3_" class="st1">
	<rect id="Rectangle-2_5_" x="24" class="st2" width="24" height="24"/>
</g>
<path class="st3" d="M33.6,16l-0.1-8l7,4L33.6,16z M44.5,3h-17C25.6,3,24,4.6,24,6.5v11c0,1.9,1.6,3.5,3.5,3.5h17
	c1.9,0,3.5-1.6,3.5-3.5v-11C48,4.6,46.4,3,44.5,3z"/>
</svg>
