<?xml version="1.0" encoding="utf-8"?>
<!-- Generator: Adobe Illustrator 21.1.0, SVG Export Plug-In . SVG Version: 6.00 Build 0)  -->
<svg version="1.1" id="Layer_1" xmlns="http://www.w3.org/2000/svg" xmlns:xlink="http://www.w3.org/1999/xlink" x="0px" y="0px"
	 viewBox="0 0 48 24" style="enable-background:new 0 0 48 24;" xml:space="preserve">
<style type="text/css">
	.st0{fill:#D8D8D8;fill-opacity:0;}
	.st1{opacity:0;}
	.st2{fill:#D8D8D8;}
	.st3{fill:#FFFFFF;}
</style>
<rect id="Rectangle-2_6_" x="24" class="st0" width="24" height="24"/>
<title>Facebook</title>
<desc>Created with Sketch.</desc>
<g id="bounding-box" class="st1">
	<rect id="Rectangle-2_3_" class="st2" width="24" height="24"/>
</g>
<g id="twitch" transform="translate(3.000000, 3.000000)">
	<path id="Fill-1_3_" class="st3" d="M18,0H2.5C2.2,0,1.9,0.2,1.7,0.4L0.2,2.7C0.1,2.9,0,3.1,0,3.3V15c0,0.6,0.4,1,1,1h3v2
		c0,0.6,0.4,1,1,1h1.6c0.3,0,0.5-0.1,0.7-0.3L10,16h3.6c0.3,0,0.5-0.1,0.7-0.3l4.4-4.4c0.2-0.2,0.3-0.4,0.3-0.7V1
		C19,0.4,18.6,0,18,0 M18,1v9.6L13.6,15H10c-0.3,0-0.5,0.1-0.7,0.3L6.6,18H5v-2c0-0.6-0.4-1-1-1H1V3.3L2.5,1H18"/>
	<path id="Fill-3" class="st3" d="M4,12h2.5C6.8,12,7,12.2,7,12.5v1.8l2.1-2.1c0.1-0.1,0.2-0.1,0.4-0.1h3.8L16,9.4V3H4V12z M6.5,16
		c-0.1,0-0.1,0-0.2,0C6.1,15.9,6,15.7,6,15.5V13H3.5C3.2,13,3,12.8,3,12.5v-10C3,2.2,3.2,2,3.5,2h13C16.8,2,17,2.2,17,2.5v7
		c0,0.1-0.1,0.3-0.1,0.4l-3,3C13.8,13,13.7,13,13.5,13H9.7l-2.9,2.9C6.8,15.9,6.6,16,6.5,16z"/>
	<path id="Fill-5" class="st3" d="M11,10h2V5h-2V10z M12,6v3V6z"/>
	<path id="Fill-7" class="st3" d="M7,10h2V5H7V10z M8,6v3V6z"/>
</g>
<g id="bounding-box_1_" class="st1">
	<rect id="Rectangle-2_2_" x="24" class="st2" width="24" height="24"/>
</g>
<g transform="translate(3.000000, 3.000000)">
	<path id="Fill-1_2_" class="st3" d="M30.5,12H28V3h12v6.3L37.3,12h-3.8c-0.1,0-0.3,0.1-0.3,0.1L31,14.2v-1.8
		C31,12.2,30.8,12,30.5,12 M42,0H26.5c-0.3,0-0.6,0.2-0.8,0.4l-1.5,2.3C24.1,2.9,24,3.1,24,3.3V15c0,0.6,0.5,1,1,1h3v2
		c0,0.5,0.5,1,1,1h1.6c0.3,0,0.5-0.1,0.7-0.3L34,16h3.6c0.3,0,0.5-0.1,0.7-0.3l4.4-4.4c0.2-0.2,0.3-0.4,0.3-0.7V1
		C43,0.5,42.5,0,42,0"/>
	<path id="Fill-3_1_" class="st3" d="M35,10h2V5h-2V10z M36,6v3V6z"/>
	<path id="Fill-5_1_" class="st3" d="M31,10h2V5h-2V10z M32,6v3V6z"/>
</g>
</svg>
