<?xml version="1.0" encoding="utf-8"?>
<!-- Generator: Adobe Illustrator 21.1.0, SVG Export Plug-In . SVG Version: 6.00 Build 0)  -->
<svg version="1.1" id="Layer_1" xmlns="http://www.w3.org/2000/svg" xmlns:xlink="http://www.w3.org/1999/xlink" x="0px" y="0px"
	 viewBox="0 0 48 24" style="enable-background:new 0 0 48 24;" xml:space="preserve">
<style type="text/css">
	.st0{opacity:0;}
	.st1{fill:#D8D8D8;}
	.st2{fill:#FFFFFF;}
</style>
<title>Facebook</title>
<desc>Created with Sketch.</desc>
<g id="bounding-box_4_" class="st0">
	<rect id="Rectangle-2_7_" class="st1" width="24" height="24"/>
</g>
<g id="insta" transform="translate(2.000000, 3.000000)">
	<path id="Fill-1_5_" class="st2" d="M5.5,1C3,1,1,2.9,1,5.3v8.3C1,16.1,3,18,5.5,18h8c2.5,0,4.5-1.9,4.5-4.3V5.3
		C18,2.9,16,1,13.5,1H5.5z M13.5,19h-8c-3,0-5.5-2.4-5.5-5.3V5.3C0,2.4,2.5,0,5.5,0h8c3,0,5.5,2.4,5.5,5.3v8.3
		C18.9,16.6,16.5,19,13.5,19z"/>
	<path id="Fill-4" class="st2" d="M9.4,6C8.5,6,7.7,6.3,7.1,7C6.4,7.6,6,8.5,6,9.5C6,11.4,7.6,13,9.5,13S13,11.5,13,9.5l0,0
		C13,7.3,11.7,6,9.4,6L9.4,6 M9.5,14C7,14,5,12,5,9.5c0-1.2,0.5-2.4,1.4-3.3C7.2,5.4,8.4,5,9.5,5C12.3,5.1,14,6.8,14,9.5l0,0
		C13.9,12,12,14,9.5,14"/>
	<path id="Fill-6" class="st2" d="M16,4c0,0.6-0.4,1-1,1s-1-0.4-1-1s0.4-1,1-1C15.5,3,16,3.4,16,4"/>
</g>
<g id="bounding-box_5_" class="st0">
	<rect id="Rectangle-2_8_" x="24" class="st1" width="24" height="24"/>
</g>
<path class="st2" d="M41,8c-0.5,0-1-0.4-1-1s0.5-1,1-1s1,0.4,1,1S41.5,8,41,8z M39,12.5c0,2-1.6,3.5-3.5,3.5S32,14.4,32,12.5
	c0-0.9,0.4-1.9,1.1-2.6C33.7,9.3,34.5,9,35.4,9h0.1C37.7,9,39,10.3,39,12.5L39,12.5z M39.5,3h-8c-3,0-5.5,2.4-5.5,5.3v8.3
	c0,3,2.4,5.3,5.5,5.3h8c3,0,5.5-2.4,5.5-5.3V8.3C45,5.4,42.5,3,39.5,3z"/>
</svg>
